<svg width="80" height="80" viewBox="0 0 80 80" fill="none" xmlns="http://www.w3.org/2000/svg">
<path d="M38.4084 80H41.6101C41.7172 79.9772 41.8254 79.9603 41.9343 79.9493C45.4909 79.7905 48.9754 79.1988 52.3432 78.0507C63.9027 74.109 72.1071 66.5261 76.9563 55.3022C78.5412 51.6331 79.4543 47.7738 79.8172 43.7898C79.8839 43.04 79.9413 42.2888 80.0033 41.5383V38.4696C79.9853 38.3362 79.9573 38.2095 79.9513 38.078C79.8374 35.392 79.4404 32.7254 78.7666 30.1227C76.6275 21.9026 72.3345 15.012 65.8664 9.51498C59.3983 4.01798 51.917 0.921245 43.4731 0.15807C39.0057 -0.246736 34.502 0.118126 30.158 1.23678C23.7346 2.87788 18.0349 5.90657 13.1556 10.3916C5.48795 17.4403 1.15986 26.1592 0.171334 36.5484C-0.31611 41.6955 0.23763 46.888 1.79954 51.8165C4.54901 60.5472 9.67152 67.5473 17.1671 72.8165C23.1136 76.9927 29.7411 79.3195 36.987 79.8819C37.4579 79.9186 37.9342 79.9606 38.4084 80ZM30.3715 32.4596C32.4099 29.9446 35.0106 28.4196 38.205 27.8919C37.7167 23.8225 37.2325 19.7805 36.7482 15.7425C37.9735 15.4249 42.2478 15.4316 43.2663 15.7731C42.7821 19.8065 42.2969 23.8483 41.8109 27.8986C43.3423 28.1265 44.8163 28.6436 46.1545 29.4223C47.4968 30.2056 48.6797 31.2343 49.6417 32.4549L59.4897 25.0874C60.5409 26.3115 62.3826 29.551 62.7107 30.7511L51.4334 35.5744C52.5453 38.6091 52.5173 41.6024 51.3667 44.5884L62.7694 49.4676C61.9208 51.4831 60.8143 53.38 59.4777 55.1107L49.553 47.6684C47.5139 50.1247 44.9379 51.6084 41.7875 52.1194C42.2845 56.2595 42.7767 60.3636 43.273 64.4957C41.0765 64.7538 38.924 64.7625 36.7449 64.4743C37.2425 60.3342 37.7354 56.2315 38.2303 52.1154C35.0513 51.5984 32.4839 50.1021 30.4635 47.6711L20.5115 55.1207C19.1936 53.3805 18.106 51.4773 17.2758 49.4583L28.6592 44.5937C28.0772 43.1573 27.7738 41.6232 27.7654 40.0734C27.7595 38.5381 28.0379 37.015 28.5865 35.581C24.7845 33.954 21.0291 32.3449 17.2738 30.7378C17.7814 29.2001 19.9012 25.6611 20.5876 25.1194L30.3715 32.4596ZM7.34383 56.7425C4.98124 52.3496 3.08489 46.0293 3.295 38.9526C3.44096 33.4787 4.82064 28.1084 7.33115 23.2421L9.74044 24.4316C9.27352 25.493 8.7866 26.4996 8.37571 27.5423C7.96483 28.585 7.62064 29.6657 7.24178 30.7498C7.73471 30.8919 8.15893 31.0167 8.58382 31.1361L9.89252 31.5063C8.33769 37.1888 8.34036 42.8339 9.89252 48.5003L7.24178 49.2548C7.62798 50.3536 7.97016 51.4309 8.38439 52.4796C8.79861 53.5283 9.28353 54.541 9.74311 55.5837C8.97804 55.9606 8.22297 56.3329 7.46656 56.7045C7.42669 56.7198 7.38565 56.7318 7.34383 56.7405V56.7425ZM70.126 48.4983C71.6795 42.8205 71.6768 37.1754 70.126 31.509L72.7334 30.7645C72.1164 28.5818 71.2822 26.4665 70.2434 24.4503L71.4534 23.8539L72.692 23.2428C75.735 29.2495 77.0586 35.5899 76.6628 42.2642C76.3587 47.3676 75.0333 52.2032 72.6867 56.7712L70.2427 55.5637C71.2834 53.5451 72.1181 51.4268 72.7341 49.2408L70.126 48.4983ZM17.5459 61.7738C21.7482 66.0253 26.6281 68.8546 32.3085 70.3362C32.0837 71.2382 31.8676 72.1014 31.6495 72.9733C33.8471 73.5284 36.0945 73.8636 38.3584 73.974C38.2997 74.8959 38.2437 75.7752 38.1876 76.6558C33.1623 76.499 26.1492 74.9406 19.6104 70.5444C15.4358 67.7512 11.8762 64.1342 9.15013 59.9153L11.426 58.4156C12.6723 60.3414 14.1073 62.1384 15.7096 63.7799C16.3246 63.1094 16.9229 62.4543 17.5459 61.7732V61.7738ZM41.8256 76.6778C41.7689 75.7645 41.7135 74.8846 41.6568 73.974C43.944 73.8499 46.1646 73.5464 48.3657 72.9733C48.1416 72.0781 47.9268 71.2222 47.7047 70.3382C53.4078 68.8526 58.2977 66.0147 62.4979 61.7565L64.3176 63.7698C65.9152 62.1308 67.347 60.3377 68.5919 58.4169L70.8357 59.8993C70.1727 61.3749 66.6829 65.4523 64.1622 67.6604C60.2889 71.0645 55.736 73.6057 50.8057 75.1154C47.8922 76.0171 44.8751 76.542 41.8282 76.6771L41.8256 76.6778ZM32.3098 9.67708C26.6128 11.1621 21.7242 14.002 17.5313 18.2515C16.9069 17.563 16.3113 16.9046 15.7043 16.2355C14.1044 17.8763 12.6709 19.6716 11.4247 21.595L9.1688 20.1054C12.2745 15.1501 17.5179 9.98863 24.3642 6.77582C28.7023 4.73026 33.401 3.56007 38.1916 3.33218L38.3591 6.03665C36.0778 6.1614 33.856 6.46828 31.6508 7.04132C31.8709 7.92992 32.0864 8.78649 32.3098 9.67708ZM47.7067 9.67708C47.9342 8.77115 48.149 7.91457 48.3677 7.03999C46.1486 6.46627 43.9267 6.16674 41.6581 6.03598C41.7168 5.11337 41.7722 4.24213 41.8269 3.37622C44.9299 2.97595 53.1056 5.26947 57.688 7.81516C63.0905 10.8158 67.4848 14.9097 70.8711 20.0967L68.5992 21.5997C67.3664 19.6955 65.9485 17.9176 64.3663 16.2922L62.4192 18.1808C58.2864 13.988 53.3997 11.1621 47.7067 9.67441V9.67708Z" fill="#FFF38A"/>
</svg>
