<svg width="80" height="80" viewBox="0 0 80 80" fill="none" xmlns="http://www.w3.org/2000/svg">
<path d="M76.9679 20.0914C77.0835 20.2106 77.1838 20.3449 77.2662 20.4911C77.5686 21.2149 77.8969 21.9318 78.1326 22.6798C78.563 24.0508 78.9839 25.4289 79.3177 26.8269C80.0873 30.0454 79.9674 33.3349 79.9988 36.6159C80.0301 39.897 79.6323 43.094 78.6856 46.2044C78.277 47.5313 77.6681 48.7928 77.1191 50.0699C76.7963 50.8208 76.4381 51.5575 76.0444 52.2729C75.6725 52.9598 75.2271 53.6027 74.8402 54.2811C74.2954 55.241 73.7764 56.2152 73.252 57.1852C73.1977 57.2786 73.1695 57.3859 73.1702 57.4952C73.1879 57.6815 73.192 57.9418 73.3064 58.0257C73.4209 58.1096 73.6892 58.0627 73.8186 57.9674C74.8106 57.2599 75.6564 56.3517 76.3059 55.2965C77.2713 53.6847 78.2429 52.0823 79.221 50.4895C79.3508 50.3104 79.4963 50.1442 79.6555 49.9931L79.7917 50.0358C79.8026 50.2548 79.8802 50.498 79.8149 50.6857C79.5315 51.4992 79.2387 52.3127 78.8886 53.0964C78.1285 54.803 77.3711 56.5096 76.453 58.1423C75.4995 59.8489 74.4983 61.5072 73.3201 63.0489C66.9274 71.4015 58.7844 76.9082 48.7262 79.0202C35.7788 81.738 24.0233 78.7969 13.6095 70.2737C10.1415 67.4293 7.20737 64.043 4.74185 60.2329C3.55297 58.3954 2.52189 56.4517 1.66063 54.4247C1.17162 53.2784 0.652636 52.1492 0.25897 50.9616C0.177469 50.6731 0.111075 50.3802 0.0600908 50.0841L0.208562 49.9746C0.377471 50.1425 0.591338 50.2818 0.709846 50.4824C1.13212 51.2034 1.50535 51.9543 1.92762 52.674C2.28178 53.3077 2.67301 53.918 3.09908 54.5015C3.89595 55.5425 4.73368 56.5495 5.57822 57.5493C5.78216 57.7726 6.0279 57.9498 6.30017 58.0698C6.65025 58.2333 6.86955 58.0612 6.7851 57.6844C6.69928 57.3023 6.56168 56.935 6.37645 56.5935C5.9678 55.8384 5.50466 55.1145 5.08648 54.365C4.29506 52.9428 3.45188 51.5533 2.75309 50.0884C0.835594 46.2671 -0.111303 41.9963 0.00288223 37.684C0.00288223 35.0743 -0.0420745 32.4574 0.0995906 29.8534C0.214013 27.7201 0.690776 25.6295 1.38276 23.61C1.74101 22.5618 2.1769 21.5421 2.591 20.5153C2.6896 20.3127 2.80204 20.1178 2.92745 19.9321L3.09499 19.9748C3.06639 20.3161 3.04731 20.6575 3.00917 20.9974C2.67272 24.1063 2.80894 27.2195 2.86207 30.3483C2.89912 32.434 3.22769 34.5028 3.83737 36.4893C4.03537 37.1227 4.27618 37.7405 4.55796 38.3382C5.0824 39.476 5.57686 40.6351 6.20891 41.7046C7.02621 43.0813 7.93613 44.3968 8.85831 45.6995C9.16344 46.1262 9.60614 46.4661 10.0202 46.8017C10.403 47.1117 10.764 46.9567 10.8593 46.4575C10.9176 46.2136 10.9129 45.958 10.8457 45.7166C10.4616 44.6713 10.1306 43.5833 9.61976 42.6176C8.50143 40.5213 7.84214 38.2628 7.16106 35.9916C6.10129 32.456 5.91876 28.8479 6.11083 25.1914C6.17076 24.0693 6.18575 22.9373 6.35738 21.8322C6.51948 20.7897 6.86002 19.7785 7.12428 18.7531C7.33133 17.951 7.51658 17.1418 7.7536 16.3482C8.89645 12.5339 10.9261 9.25285 13.457 6.30606C15.1011 4.39036 16.8406 2.56425 18.5597 0.721084C18.8784 0.379757 19.2053 -0.0540053 19.8673 0.0540817C19.7189 0.348477 19.6085 0.605898 19.4669 0.840561C18.8008 1.93565 18.0407 2.97387 17.4713 4.12443C15.9729 7.14375 15.1229 10.3295 15.4553 13.784C15.6243 15.7149 16.0261 17.6157 16.6513 19.4415C17.228 21.0876 17.9228 22.6859 18.7299 24.2229C19.8537 26.3562 21.0892 28.4241 22.3506 30.4692C23.2346 31.9014 23.2714 33.3136 22.6816 34.8495C22.0196 36.5747 21.3889 38.3154 20.8222 40.0761C20.406 41.3614 20.0643 42.6717 19.7992 44C19.6358 44.8249 19.6453 45.6952 19.6467 46.5443C19.6467 48.962 19.5104 51.3883 19.7638 53.7733C19.9668 55.6919 20.5961 57.5749 21.1587 59.4322C21.4311 60.3225 21.9869 61.1147 22.401 61.9595C22.5372 62.2311 22.574 62.5639 22.7415 62.8043C23.5901 64.0359 24.3979 65.3102 25.35 66.4522C27.0051 68.4319 28.7078 70.3832 30.8191 71.8566C32.7439 73.2062 34.7694 74.3468 37.0619 74.8787C37.7675 75.0437 37.8547 75.021 37.9242 74.2643C38.0522 72.8578 38.1762 71.447 38.2211 70.0362C38.2756 68.3509 38.2511 66.6627 38.2498 64.976C38.2498 64.4825 38.2498 63.8709 37.7771 63.696C37.5196 63.5993 37.0497 63.9335 36.7514 64.1753C36.0703 64.7285 35.4246 65.3443 34.7667 65.9345C34.5145 66.1822 34.2274 66.388 33.9153 66.5447C33.934 66.3638 33.9757 66.1864 34.0393 66.017C34.4016 65.333 34.8253 64.683 35.1522 63.9819C35.5499 63.1285 36.0294 62.288 35.9695 61.2797C35.9368 60.7179 35.5036 60.5686 35.1045 60.4975C33.9426 60.2898 32.7698 60.149 31.6038 59.9613C30.8042 59.8333 30.0073 59.6883 29.2159 59.5119C29.0483 59.4749 28.9148 59.2701 28.7664 59.1435C28.9094 58.9928 29.0388 58.7425 29.1982 58.7069C30.5603 58.4083 31.9225 58.1665 33.2847 57.8735C34.1306 57.6901 34.9683 57.4611 35.8033 57.2264C36.2215 57.1084 36.3264 56.7912 36.1752 56.3731C35.6875 55.0391 35.2217 53.7008 34.7095 52.3753C34.4371 51.6741 34.0965 51.0057 33.8282 50.3032C33.7015 49.9732 33.6729 49.6006 33.6007 49.2465L33.7737 49.1668C34.4548 50.0202 35.1358 50.8905 35.8169 51.7381C36.3345 52.3715 36.869 52.9878 37.4202 53.587C37.5482 53.7292 37.7716 53.7733 37.9514 53.8629C38.0223 53.6724 38.1462 53.4861 38.1571 53.2941C38.2933 50.8337 38.4663 48.3732 38.5426 45.9086C38.8069 37.2332 39.0384 28.5435 39.2823 19.8625C39.3985 15.7295 39.5143 11.5971 39.6296 7.46517C39.6296 7.3457 39.6528 7.22481 39.665 7.10535L39.8149 7.09253C39.9143 8.06247 40.0696 9.02956 40.1023 10.0009C40.2385 13.9333 40.3298 17.8685 40.4401 21.8052C40.6345 28.7673 40.8315 35.728 41.0313 42.6873C41.1253 45.8161 41.2615 48.9549 41.3855 52.0895C41.4059 52.5958 41.4399 53.1035 41.5053 53.6055C41.5666 54.0734 41.8091 54.1744 42.1306 53.8487C42.6019 53.3694 43.0323 52.8532 43.4614 52.3227C44.0703 51.5803 44.6574 50.8151 45.2663 50.0713C45.4433 49.8566 45.6627 49.6817 45.9678 49.3859C45.9446 49.6632 45.9678 49.8054 45.9187 49.9178C45.5605 50.791 45.2022 51.6656 44.8195 52.5275C44.4108 53.4576 43.9654 54.3763 43.5418 55.2993C43.484 55.431 43.4384 55.5682 43.4056 55.7089C43.1467 56.777 43.3156 57.1781 44.3386 57.4156C45.7253 57.7299 47.1379 57.9162 48.5341 58.1864C49.1798 58.3116 49.8173 58.4922 50.4493 58.6827C50.7006 58.7848 50.9423 58.9109 51.1712 59.0596L51.1835 59.263C50.8457 59.3867 50.516 59.5659 50.1673 59.6228C48.5218 59.8931 46.8695 60.1135 45.2254 60.3937C44.7854 60.4803 44.3606 60.6361 43.9654 60.8559C43.5268 61.0848 43.4273 61.4973 43.6453 61.9638C44.0839 62.901 44.5307 63.8354 44.972 64.7712C45.2118 65.2832 45.4515 65.7966 45.679 66.3142C45.6962 66.4082 45.6962 66.5047 45.679 66.5987L45.5142 66.7224C45.3889 66.5347 45.2935 66.3129 45.1341 66.1664C44.3168 65.4183 43.5186 64.6261 42.6332 63.9705C41.8159 63.3675 41.271 63.7145 41.2833 64.7626C41.2928 65.9232 41.35 67.0822 41.3882 68.2428C41.4536 70.1997 41.5189 72.1566 41.5843 74.1136C41.6129 74.9271 41.711 75.0636 42.4861 74.937C43.1354 74.8279 43.7709 74.6433 44.3809 74.3866C47.6936 72.9957 50.6141 71.016 53.0429 68.2328C54.3056 66.785 55.5956 65.3571 56.6213 63.7273C57.7709 61.8998 58.7449 59.9514 59.2816 57.8124C59.614 56.484 59.9109 55.1443 60.1874 53.8018C60.2792 53.3215 60.3207 52.8322 60.3114 52.3426C60.3005 49.8224 60.3005 47.3023 60.2228 44.785C60.1997 44.0384 59.9804 43.2875 59.7829 42.5593C59.3333 40.8925 58.9261 39.2143 58.1891 37.6413C57.8036 36.8193 57.583 35.9134 57.3037 35.0387C57.0997 34.451 56.9274 33.8518 56.7875 33.2439C56.6417 32.5328 56.8065 31.8985 57.2097 31.2528C58.1265 29.7866 58.9424 28.2506 59.7978 26.7444C60.152 26.1272 60.5579 25.5398 60.8699 24.8956C61.4038 23.8048 61.8711 22.6798 62.386 21.5805C63.507 19.1827 64.0355 16.6142 64.4646 14.0087C64.7139 12.4941 64.5436 11.0334 64.2685 9.53871C63.9511 7.81216 63.3463 6.19797 62.7074 4.60084C62.3669 3.74752 61.7839 3.00087 61.2853 2.22293C60.8767 1.58437 60.4285 0.972825 60.0049 0.342792C59.9654 0.28306 59.945 0.140854 59.979 0.108143C60.0444 0.0427222 60.1779 -0.0255753 60.2433 0.00429089C60.5157 0.123755 60.8045 0.233265 61.0102 0.43095C62.0141 1.408 63.0316 2.37225 63.9688 3.41756C65.158 4.74305 66.3144 6.10553 67.4096 7.51635C68.3236 8.69393 69.2445 9.89711 69.9555 11.2141C70.8709 12.9051 71.7263 14.6458 72.184 16.5644C72.6281 18.4346 73.2887 20.2621 73.5462 22.1607C73.8186 24.1518 73.7328 26.2097 73.8186 28.2378C73.914 30.5232 73.5639 32.7632 73.0394 34.9591C72.3468 37.8582 71.3414 40.6661 70.0427 43.3287C69.6994 44.0327 69.4215 44.7737 69.1246 45.5004C69.05 45.6453 69.0138 45.8083 69.0197 45.9726C69.0701 46.3096 69.175 46.6382 69.2581 46.9681C69.555 46.8686 69.9392 46.86 70.1312 46.6524C70.8144 45.9132 71.4514 45.1289 72.0383 44.3043C72.6972 43.3782 73.2983 42.4086 73.8377 41.4016C75.1058 38.991 76.246 36.5121 76.7255 33.7787C76.8753 32.8865 76.9491 31.9822 76.9461 31.0765C76.9598 27.8495 76.9325 24.6225 76.9121 21.3956C76.9121 20.9831 76.8508 20.5693 76.8181 20.1569L76.9679 20.0914Z" fill="#FFF38A"/>
</svg>
